<?xml version="1.0" encoding="UTF-8" standalone="no"?>
<!-- Created with Inkscape (http://www.inkscape.org/) -->

<svg
   width="35.618748mm"
   height="32.382458mm"
   viewBox="0 0 35.618748 32.382458"
   version="1.1"
   id="svg1"
   xmlns="http://www.w3.org/2000/svg"
   xmlns:svg="http://www.w3.org/2000/svg">
  <defs
     id="defs1" />
  <g
     id="layer1"
     transform="translate(-85.30629,-107.23068)">
    <path
       style="fill:#ff0808;fill-opacity:1;stroke-width:0.264583"
       d="m 111.06781,107.23068 v 10.58022 l 6.34862,10.99614 z"
       id="path3" />
    <path
       style="fill:#0812ff;fill-opacity:1;stroke-width:0.265;stroke-dasharray:none"
       d="m 117.41402,128.80351 c 0,0.12825 0,10.02706 0,10.02706 l -6.3469,-21.01967 z"
       id="path4" />
    <circle
       style="fill:#000000;fill-opacity:1;stroke-width:0.264999;stroke-dasharray:none"
       id="path10"
       cx="120.76134"
       cy="129.57608"
       r="0.16370259" />
    <circle
       style="fill:#000000;fill-opacity:1;stroke-width:0.264999;stroke-dasharray:none"
       id="path10-1"
       cx="104.82931"
       cy="116.11113"
       r="0.16370259" />
    <path
       style="fill:#13ff1d;fill-opacity:0.373929;stroke-width:0.264999;stroke-dasharray:none"
       d="m 104.84711,116.07062 12.56691,12.73495 -6.34793,-10.99571 z"
       id="path11" />
    <path
       style="fill:#aeff13;fill-opacity:0.373929;stroke-width:0.264999;stroke-dasharray:none"
       d="m 120.75749,129.57142 -9.69243,-11.76156 6.34666,10.99275 z"
       id="path12" />
    <path
       style="fill:#13ffee;fill-opacity:0.229259;stroke-width:0.264999;stroke-dasharray:none"
       d="m 104.84941,116.0694 6.21978,-8.83667 6.33624,21.56577 z"
       id="path13" />
    <path
       style="fill:#8fff13;fill-opacity:0.229259;stroke-width:0.264999;stroke-dasharray:none"
       d="m 111.06299,117.80573 6.35103,21.02404 3.34293,-9.25807 z"
       id="path14" />
    <path
       style="fill:#ff0808;fill-opacity:1;stroke-width:0.264583"
       d="m 91.708493,108.01325 v 10.58022 l 6.348626,10.99614 z"
       id="path3-3" />
    <path
       style="fill:#0812ff;fill-opacity:1;stroke-width:0.265;stroke-dasharray:none"
       d="m 98.054709,129.58608 c 0,0.12825 0,10.02706 0,10.02706 l -6.346901,-21.01967 z"
       id="path4-6" />
    <circle
       style="fill:#000000;fill-opacity:1;stroke-width:0.264999;stroke-dasharray:none"
       id="path10-0"
       cx="101.40202"
       cy="130.35866"
       r="0.16370259" />
    <circle
       style="fill:#000000;fill-opacity:1;stroke-width:0.264999;stroke-dasharray:none"
       id="path10-1-6"
       cx="85.469994"
       cy="116.89371"
       r="0.16370259" />
  </g>
</svg>
